<svg width="27" height="22" viewBox="0 0 27 22" fill="none" xmlns="http://www.w3.org/2000/svg">
<path d="M26.1875 11.1289C26.1875 10.8691 26.0781 10.6367 25.873 10.4453L16.7402 1.28516C16.4805 1.02539 16.248 0.929688 16.002 0.929688C15.4824 0.929688 15.0996 1.3125 15.0996 1.81836C15.0996 2.07812 15.1816 2.31055 15.3457 2.48828L19.4336 6.61719L23.4668 10.3633L20.2949 10.2129H1.70117C1.18164 10.2129 0.798828 10.5957 0.798828 11.1289C0.798828 11.6621 1.18164 12.0449 1.70117 12.0449H20.2949L23.4805 11.8945L19.4336 15.6406L15.3457 19.7695C15.1816 19.9336 15.0996 20.1797 15.0996 20.4258C15.0996 20.9316 15.4824 21.3145 16.002 21.3145C16.248 21.3145 16.4668 21.2324 16.6719 21.041L25.873 11.8125C26.0781 11.6211 26.1875 11.3887 26.1875 11.1289Z" fill="#0D8EE9"/>
</svg>
