<svg width="23" height="18" viewBox="0 0 23 18" fill="none" xmlns="http://www.w3.org/2000/svg">
<path d="M22.4297 9.03906C22.4297 8.74609 22.3125 8.47656 22.0781 8.25391L14.3086 0.507812C14.0508 0.25 13.8047 0.15625 13.5234 0.15625C12.9492 0.15625 12.5039 0.578125 12.5039 1.16406C12.5039 1.44531 12.5977 1.71484 12.7852 1.90234L15.4102 4.57422L19.3477 8.17188L16.5234 7.99609H1.69922C1.08984 7.99609 0.667969 8.42969 0.667969 9.03906C0.667969 9.64844 1.08984 10.082 1.69922 10.082H16.5234L19.3594 9.90625L15.4102 13.5039L12.7852 16.1758C12.5977 16.3516 12.5039 16.6328 12.5039 16.9141C12.5039 17.5 12.9492 17.9219 13.5234 17.9219C13.8047 17.9219 14.0508 17.8164 14.2852 17.5938L22.0781 9.82422C22.3125 9.60156 22.4297 9.33203 22.4297 9.03906Z" fill="#1B1B1B"/>
</svg>
