<svg width="44" height="38" viewBox="0 0 44 38" fill="none" xmlns="http://www.w3.org/2000/svg">
<path d="M3.42188 28.0156C4.8125 30.4219 8.42188 30.8125 13.375 29.3281C14.5781 34.375 16.7188 37.3281 19.5 37.3281C22.2656 37.3281 24.4219 34.375 25.625 29.3281C30.5781 30.8125 34.1875 30.4219 35.5625 28.0156C36.9375 25.625 35.4844 22.3125 31.7344 18.7656C35.4844 15.2188 36.9531 11.8906 35.5625 9.46875C34.1719 7.0625 30.5625 6.67188 25.6094 8.14062C24.4219 3.14062 22.2656 0.203125 19.5 0.203125C16.7188 0.203125 14.5781 3.14062 13.375 8.14062C8.42188 6.67188 4.8125 7.0625 3.42188 9.46875C2.03125 11.8906 3.5 15.2188 7.26562 18.7656C3.51562 22.3125 2.04688 25.625 3.42188 28.0156ZM19.5 2C21.4531 2 23 4.45312 23.9062 8.70312C22.5156 9.21875 21.0469 9.84375 19.5 10.6094C17.9531 9.84375 16.4844 9.21875 15.0938 8.71875C15.9844 4.45312 17.5312 2 19.5 2ZM34.0156 10.375C35 12.0625 33.625 14.6406 30.375 17.5469C29.25 16.6094 27.9844 15.6562 26.5625 14.6875C26.4375 12.9688 26.25 11.375 25.9844 9.90625C30.125 8.5625 33.0312 8.67188 34.0156 10.375ZM4.98438 10.375C5.95312 8.67188 8.875 8.5625 13.0156 9.90625C12.75 11.375 12.5625 12.9688 12.4375 14.6875C11.0156 15.6406 9.73438 16.6094 8.60938 17.5469C5.35938 14.6406 3.98438 12.0625 4.98438 10.375ZM23.0469 12.5C22.5469 12.2188 22.0625 11.9531 21.5781 11.6875C22.5 11.25 23.3906 10.875 24.2344 10.5469C24.375 11.4375 24.4844 12.4062 24.5781 13.4219C24.0781 13.1094 23.5625 12.8125 23.0469 12.5ZM15.9375 12.5C15.4219 12.8125 14.9219 13.1094 14.4219 13.4062C14.5156 12.3906 14.625 11.4375 14.7656 10.5469C15.6094 10.875 16.4844 11.25 17.4062 11.6875C16.9219 11.9531 16.4375 12.2188 15.9375 12.5ZM16.8125 23.2812C15.9219 22.7656 15.0781 22.2656 14.2812 21.75C14.2344 20.7812 14.2188 19.7656 14.2188 18.7188C14.2188 17.6875 14.2344 16.7031 14.2812 15.75C15.1094 15.2188 15.9844 14.6875 16.8906 14.1562C17.7812 13.6406 18.6562 13.1562 19.5 12.7188C20.3438 13.1562 21.2031 13.6406 22.0938 14.1562C23.0156 14.6875 23.8906 15.2188 24.7188 15.75C24.7656 16.7031 24.7812 17.6875 24.7812 18.7188C24.7812 19.7656 24.7656 20.7812 24.7188 21.75C23.9219 22.25 23.0625 22.7656 22.1719 23.2812C21.2656 23.8125 20.3594 24.2969 19.5 24.75C18.625 24.2969 17.7344 23.8125 16.8125 23.2812ZM19.5 22.1094C21.3438 22.1094 22.8438 20.625 22.8438 18.7656C22.8438 16.9219 21.3438 15.4219 19.5 15.4219C17.6562 15.4219 16.1562 16.9219 16.1562 18.7656C16.1562 20.625 17.6562 22.1094 19.5 22.1094ZM12.3125 18.7188C12.3125 19.3125 12.3125 19.8906 12.3281 20.4531C11.5 19.8906 10.7344 19.3125 10.0312 18.75C10.7344 18.1875 11.5 17.625 12.3281 17.0469C12.3125 17.5938 12.3125 18.1406 12.3125 18.7188ZM26.6875 18.7188C26.6875 18.1562 26.6875 17.5938 26.6719 17.0469C27.4844 17.625 28.25 18.1875 28.9531 18.75C28.25 19.3125 27.4844 19.875 26.6719 20.4531C26.6719 19.8906 26.6875 19.3125 26.6875 18.7188ZM4.98438 27.125C4 25.4375 5.35938 22.875 8.60938 19.9531C9.73438 20.9062 11.0156 21.8594 12.4375 22.8125C12.5625 24.5312 12.75 26.1094 13.0156 27.5625C8.85938 28.9219 5.95312 28.8125 4.98438 27.125ZM34.0156 27.125C33.0312 28.8125 30.125 28.9219 25.9844 27.5625C26.25 26.1094 26.4375 24.5312 26.5469 22.8125C27.9844 21.8594 29.25 20.9062 30.375 19.9531C33.625 22.875 34.9844 25.4375 34.0156 27.125ZM23.125 24.9375C23.625 24.6562 24.0938 24.375 24.5625 24.0781C24.4844 25.0938 24.375 26.0469 24.2344 26.9375C23.3906 26.6094 22.5156 26.2188 21.5938 25.7969C22.0938 25.5156 22.6094 25.2344 23.125 24.9375ZM15.8594 24.9375C16.375 25.2344 16.8906 25.5156 17.3906 25.7969C16.4844 26.2188 15.5938 26.5938 14.7656 26.9219C14.625 26.0469 14.5156 25.0938 14.4219 24.0938C14.8906 24.375 15.375 24.6562 15.8594 24.9375ZM19.5 35.5312C17.5312 35.5312 15.9844 33.0469 15.0938 28.7656C16.4688 28.2656 17.9531 27.6406 19.5 26.875C21.0469 27.6406 22.5156 28.2656 23.9062 28.7656C23 33.0469 21.4531 35.5312 19.5 35.5312Z" fill="url(#paint0_linear)"/>
<defs>
<linearGradient id="paint0_linear" x1="11.1719" y1="-5.16309" x2="42.3946" y2="11.2818" gradientUnits="userSpaceOnUse">
<stop stop-color="#1D7CEA"/>
<stop offset="1" stop-color="#4186D7"/>
</linearGradient>
</defs>
</svg>
