<svg width="44" height="38" viewBox="0 0 44 38" fill="none" xmlns="http://www.w3.org/2000/svg">
<path d="M3.28125 30.2344C3.28125 30.75 3.51562 31.1562 3.96875 31.4219L7.21875 33.3438C7.53125 33.5312 7.76562 33.5625 8.1875 33.3281L11.3281 31.5156C11.7812 31.25 11.8906 31.0312 11.8906 30.5781L11.8594 27.8438L19.5312 24L27.125 27.8125L27.0938 30.5781C27.0938 31.0312 27.2031 31.2656 27.6719 31.5312L30.7969 33.3438C31.2188 33.5781 31.4531 33.5312 31.7812 33.3438L35.0156 31.4375C35.4688 31.1719 35.7031 30.7656 35.7031 30.25L35.75 26.4844C35.75 26.1406 35.6875 25.875 35.2656 25.6406L32.1094 23.8125C31.6719 23.5625 31.375 23.6094 31 23.8125L27.7812 25.7344C27.6875 25.7812 27.625 25.8438 27.5469 25.8906L20.4844 22.3594V13.1094L23.4062 11.4844C23.7969 11.2656 23.9531 11.0312 23.9531 10.5156V6.89062C23.9531 6.40625 23.7812 6.21875 23.4688 6.03125L20.1875 4.1875C19.7188 3.9375 19.2656 3.9375 18.8125 4.1875L15.5312 6.03125C15.2188 6.20312 15.0312 6.40625 15.0312 6.89062V10.5156C15.0312 11.0312 15.2188 11.2656 15.5938 11.4844L18.5625 13.1406V22.3594L11.4688 25.9062C11.3906 25.8438 11.3125 25.7812 11.2188 25.7188L7.98438 23.8125C7.60938 23.5938 7.32812 23.5469 6.875 23.8125L3.71875 25.625C3.29688 25.8594 3.23438 26.125 3.23438 26.4688L3.28125 30.2344Z" fill="url(#paint0_linear)"/>
<defs>
<linearGradient id="paint0_linear" x1="11.1719" y1="-5.16309" x2="42.3946" y2="11.2818" gradientUnits="userSpaceOnUse">
<stop stop-color="#1D7CEA"/>
<stop offset="1" stop-color="#4186D7"/>
</linearGradient>
</defs>
</svg>
