<svg width="44" height="38" viewBox="0 0 44 38" fill="none" xmlns="http://www.w3.org/2000/svg">
<path d="M7.01562 17.4062H17.4844C19.25 17.4062 20.1562 16.5469 20.1562 14.7031V7.3125C20.1562 5.45312 19.25 4.59375 17.4844 4.59375H7.01562C5.26562 4.59375 4.35938 5.45312 4.35938 7.3125V14.7031C4.35938 16.5469 5.26562 17.4062 7.01562 17.4062ZM25.5 17.4062H35.9688C37.7344 17.4062 38.6406 16.5469 38.6406 14.7031V7.3125C38.6406 5.45312 37.7344 4.59375 35.9688 4.59375H25.5C23.75 4.59375 22.8438 5.45312 22.8438 7.3125V14.7031C22.8438 16.5469 23.75 17.4062 25.5 17.4062ZM7.04688 15.6719C6.375 15.6719 6.07812 15.375 6.07812 14.6719V7.3125C6.07812 6.64062 6.375 6.32812 7.04688 6.32812H17.4531C18.125 6.32812 18.4219 6.64062 18.4219 7.3125V14.6719C18.4219 15.375 18.125 15.6719 17.4531 15.6719H7.04688ZM25.5469 15.6719C24.8594 15.6719 24.5625 15.375 24.5625 14.6719V7.3125C24.5625 6.64062 24.8594 6.32812 25.5469 6.32812H35.9375C36.6094 6.32812 36.9062 6.64062 36.9062 7.3125V14.6719C36.9062 15.375 36.6094 15.6719 35.9375 15.6719H25.5469ZM7.01562 32.8906H17.4844C19.25 32.8906 20.1562 32.0312 20.1562 30.1875V22.7969C20.1562 20.9531 19.25 20.0938 17.4844 20.0938H7.01562C5.26562 20.0938 4.35938 20.9531 4.35938 22.7969V30.1875C4.35938 32.0312 5.26562 32.8906 7.01562 32.8906ZM25.5 32.8906H35.9688C37.7344 32.8906 38.6406 32.0312 38.6406 30.1875V22.7969C38.6406 20.9531 37.7344 20.0938 35.9688 20.0938H25.5C23.75 20.0938 22.8438 20.9531 22.8438 22.7969V30.1875C22.8438 32.0312 23.75 32.8906 25.5 32.8906ZM7.04688 31.1719C6.375 31.1719 6.07812 30.8594 6.07812 30.1719V22.8125C6.07812 22.125 6.375 21.8125 7.04688 21.8125H17.4531C18.125 21.8125 18.4219 22.125 18.4219 22.8125V30.1719C18.4219 30.8594 18.125 31.1719 17.4531 31.1719H7.04688ZM25.5469 31.1719C24.8594 31.1719 24.5625 30.8594 24.5625 30.1719V22.8125C24.5625 22.125 24.8594 21.8125 25.5469 21.8125H35.9375C36.6094 21.8125 36.9062 22.125 36.9062 22.8125V30.1719C36.9062 30.8594 36.6094 31.1719 35.9375 31.1719H25.5469Z" fill="url(#paint0_linear)"/>
<defs>
<linearGradient id="paint0_linear" x1="12.3177" y1="-5.16309" x2="45.2027" y2="13.9338" gradientUnits="userSpaceOnUse">
<stop stop-color="#1D7CEA"/>
<stop offset="1" stop-color="#4186D7"/>
</linearGradient>
</defs>
</svg>
