<svg width="46" height="38" viewBox="0 0 46 38" fill="none" xmlns="http://www.w3.org/2000/svg">
<path d="M13.9062 26.0938H16.1719C17.0625 26.0938 17.75 25.5625 17.9531 24.7031L18.4219 22.6406C18.5156 22.5938 18.6406 22.5625 18.7344 22.5156L20.5625 23.6094C21.3125 24.0625 22.1719 23.9688 22.7969 23.3438L24.375 21.75C25.0312 21.1094 25.1094 20.25 24.6406 19.5156L23.5312 17.7344C23.5781 17.625 23.625 17.5156 23.6562 17.3906L25.7031 16.9062C26.5625 16.7031 27.0938 16.0156 27.0938 15.125V12.9688C27.0938 12.0781 26.5781 11.3906 25.7031 11.1875L23.6562 10.7031C23.625 10.5781 23.5781 10.4688 23.5312 10.3594L24.6406 8.57812C25.1094 7.82812 25.0312 6.98438 24.375 6.34375L22.7969 4.75C22.1719 4.125 21.3125 4.03125 20.5625 4.48438L18.7344 5.57812C18.625 5.53125 18.5156 5.5 18.4062 5.45312L17.9531 3.39062C17.7656 2.53125 17.0625 2 16.1719 2H13.9062C13.0156 2 12.3281 2.53125 12.125 3.39062L11.6562 5.45312C11.5469 5.5 11.4375 5.53125 11.3281 5.57812L9.51562 4.48438C8.76562 4.03125 7.90625 4.125 7.28125 4.75L5.70312 6.34375C5.04688 6.98438 4.98438 7.84375 5.4375 8.57812L6.54688 10.3594C6.5 10.4688 6.45312 10.5781 6.42188 10.7031L4.375 11.1875C3.5 11.3906 2.98438 12.0781 2.98438 12.9688V15.125C2.98438 16.0156 3.5 16.7031 4.375 16.9062L6.42188 17.3906C6.45312 17.5156 6.5 17.625 6.54688 17.7344L5.4375 19.5156C4.96875 20.25 5.04688 21.1094 5.70312 21.75L7.28125 23.3438C7.90625 23.9688 8.75 24.0625 9.5 23.6094L11.3438 22.5156C11.4375 22.5625 11.5625 22.5938 11.6562 22.6406L12.125 24.7031C12.3281 25.5625 13.0156 26.0938 13.9062 26.0938ZM14.1406 24.375C13.8906 24.375 13.75 24.25 13.6875 24L13.0469 21.3125C12.3906 21.1406 11.7812 20.8438 11.2656 20.5781L8.92188 22.0156C8.6875 22.1562 8.51562 22.1406 8.32812 21.9531L7.0625 20.7031C6.875 20.5312 6.85938 20.3594 7.01562 20.125L8.4375 17.7969C8.23438 17.3281 7.89062 16.7031 7.73438 16.0156L5.0625 15.375C4.8125 15.3125 4.6875 15.1875 4.6875 14.9375V13.1562C4.6875 12.9062 4.8125 12.7812 5.0625 12.7188L7.73438 12.0781C7.89062 11.3906 8.23438 10.7656 8.4375 10.2969L7.01562 7.96875C6.85938 7.73438 6.875 7.5625 7.0625 7.39062L8.32812 6.14062C8.51562 5.95312 8.6875 5.9375 8.92188 6.07812L11.2656 7.51562C11.7812 7.25 12.3906 6.95312 13.0469 6.78125L13.6875 4.09375C13.75 3.84375 13.8906 3.71875 14.1406 3.71875H15.9375C16.1875 3.71875 16.3281 3.84375 16.3906 4.09375L17.0312 6.78125C17.6875 6.95312 18.2969 7.25 18.8125 7.51562L21.1562 6.07812C21.3906 5.9375 21.5625 5.95312 21.75 6.14062L23.0156 7.39062C23.2031 7.5625 23.2188 7.73438 23.0625 7.96875L21.6406 10.2969C21.8438 10.7656 22.1875 11.3906 22.3594 12.0781L25.0156 12.7188C25.2656 12.7812 25.3906 12.9062 25.3906 13.1562V14.9375C25.3906 15.1875 25.2656 15.3125 25.0156 15.375L22.3594 16.0156C22.1875 16.7031 21.8438 17.3281 21.6406 17.7969L23.0625 20.125C23.2188 20.3594 23.2031 20.5312 23.0156 20.7031L21.75 21.9531C21.5625 22.1406 21.3906 22.1562 21.1562 22.0156L18.8125 20.5781C18.2969 20.8438 17.6875 21.1406 17.0312 21.3125L16.3906 24C16.3281 24.25 16.1875 24.375 15.9375 24.375H14.1406ZM15.0312 18.75C17.625 18.75 19.7188 16.6406 19.7188 14.0469C19.7188 11.4688 17.625 9.35938 15.0312 9.35938C12.4375 9.35938 10.3438 11.4688 10.3438 14.0469C10.3438 16.625 12.4375 18.75 15.0312 18.75ZM15.0312 16.9531C13.4375 16.9531 12.125 15.6719 12.125 14.0469C12.125 12.4531 13.4375 11.1406 15.0312 11.1406C16.625 11.1406 17.9219 12.4531 17.9219 14.0469C17.9219 15.6562 16.625 16.9531 15.0312 16.9531ZM34 35.4375H35.7344C36.5781 35.4375 37.2188 34.9844 37.3594 34.2344L37.6875 32.5469C37.7969 32.5 37.9062 32.4688 38.0156 32.4219L39.4531 33.3438C40.0938 33.75 40.8594 33.6562 41.4531 33.0625L42.6719 31.8281C43.25 31.2344 43.375 30.4688 42.9375 29.8281L42 28.4062C42.0469 28.3125 42.0938 28.2188 42.125 28.0938L43.8125 27.75C44.5469 27.5938 45.0156 26.9688 45.0156 26.1406V24.4219C45.0156 23.5938 44.5469 22.9688 43.8125 22.8125L42.125 22.4688C42.0938 22.3594 42.0469 22.25 42 22.1562L42.9375 20.75C43.375 20.0938 43.25 19.3281 42.6719 18.7344L41.4531 17.5C40.8594 16.9062 40.0938 16.8125 39.4531 17.2188L38.0156 18.1406C37.9062 18.0938 37.7969 18.0625 37.6875 18.0156L37.3594 16.3281C37.2188 15.5781 36.5781 15.125 35.7344 15.125H34C33.1562 15.125 32.5156 15.5781 32.375 16.3281L32.0469 18.0156C31.9375 18.0625 31.8281 18.0938 31.7188 18.1406L30.2812 17.2188C29.6406 16.8125 28.875 16.9062 28.2812 17.5L27.0625 18.7344C26.4688 19.3281 26.3594 20.0938 26.7969 20.75L27.7344 22.1562C27.6875 22.25 27.6406 22.3594 27.6094 22.4688L25.9219 22.8125C25.1875 22.9688 24.7188 23.5938 24.7188 24.4219V26.1406C24.7188 26.9688 25.1875 27.5938 25.9219 27.75L27.6094 28.0938C27.6406 28.2188 27.6875 28.3125 27.7344 28.4062L26.7969 29.8281C26.3594 30.4688 26.4688 31.2344 27.0625 31.8281L28.2812 33.0625C28.875 33.6562 29.6406 33.75 30.2812 33.3438L31.7188 32.4219C31.8281 32.4688 31.9375 32.5 32.0469 32.5469L32.375 34.2344C32.5156 34.9844 33.1562 35.4375 34 35.4375ZM34.2969 33.7969C34.0625 33.7969 33.9219 33.6719 33.875 33.4688L33.3438 31.2344C32.7812 31.0938 32.25 30.875 31.7188 30.5469L29.7812 31.7812C29.6094 31.8906 29.4219 31.8594 29.25 31.7031L28.4375 30.875C28.2656 30.7031 28.2344 30.5312 28.3438 30.3438L29.5625 28.4375C29.3906 28.0469 29.0469 27.4531 28.9062 26.7812L26.6875 26.2812C26.4688 26.25 26.3594 26.0938 26.3594 25.8594V24.7031C26.3594 24.4688 26.4688 24.3125 26.6875 24.2812L28.9062 23.7812C29.0469 23.1094 29.3906 22.5156 29.5625 22.125L28.3438 20.2188C28.2344 20.0312 28.2656 19.8594 28.4375 19.6875L29.25 18.8594C29.4219 18.7031 29.6094 18.6719 29.7812 18.7812L31.7188 20.0156C32.25 19.6875 32.7812 19.4688 33.3438 19.3281L33.875 17.0938C33.9219 16.8906 34.0625 16.7656 34.2969 16.7656H35.4375C35.6719 16.7656 35.8125 16.8906 35.8594 17.0938L36.375 19.3281C36.9531 19.4688 37.4844 19.6875 38.0156 20.0156L39.9531 18.7812C40.125 18.6719 40.3125 18.7031 40.4844 18.8594L41.2969 19.6875C41.4688 19.8594 41.4844 20.0312 41.3906 20.2188L40.1719 22.125C40.3281 22.5156 40.6719 23.1094 40.8281 23.7812L43.0469 24.2812C43.2656 24.3125 43.375 24.4688 43.375 24.7031V25.8594C43.375 26.0938 43.2656 26.25 43.0469 26.2812L40.8281 26.7812C40.6719 27.4531 40.3281 28.0469 40.1719 28.4375L41.3906 30.3438C41.4844 30.5312 41.4688 30.7031 41.2969 30.875L40.4844 31.7031C40.3125 31.8594 40.125 31.8906 39.9531 31.7812L38.0156 30.5469C37.4844 30.875 36.9531 31.0938 36.375 31.2344L35.8594 33.4688C35.8125 33.6719 35.6719 33.7969 35.4375 33.7969H34.2969ZM34.8594 28.8281C36.8125 28.8281 38.3906 27.2344 38.3906 25.2812C38.3906 23.3438 36.8125 21.75 34.8594 21.75C32.9062 21.75 31.3125 23.3438 31.3125 25.2812C31.3125 27.2188 32.9062 28.8281 34.8594 28.8281ZM34.8594 27.25C33.7812 27.25 32.9062 26.375 32.9062 25.2812C32.9062 24.2031 33.7812 23.3281 34.8594 23.3281C35.9219 23.3281 36.7969 24.2031 36.7969 25.2812C36.7969 26.3594 35.9219 27.25 34.8594 27.25Z" fill="url(#paint0_linear)"/>
<defs>
<linearGradient id="paint0_linear" x1="13.75" y1="-5.16309" x2="48.3139" y2="17.2427" gradientUnits="userSpaceOnUse">
<stop stop-color="#1D7CEA"/>
<stop offset="1" stop-color="#4186D7"/>
</linearGradient>
</defs>
</svg>
