<svg width="22" height="26" viewBox="0 0 22 26" fill="none" xmlns="http://www.w3.org/2000/svg">
<path d="M11 0.332031C10.4531 0.332031 10.0703 0.714844 10.0703 1.23438V20.2246L10.166 23.1641L6.48828 19.1992L2.3457 15.0977C2.19531 14.9336 1.93555 14.8516 1.68945 14.8516C1.18359 14.8516 0.800781 15.2344 0.800781 15.7539C0.800781 16 0.896484 16.2188 1.08789 16.4238L10.3027 25.625C10.5078 25.8301 10.7402 25.9395 11 25.9395C11.2461 25.9395 11.4785 25.8301 11.6836 25.625L20.8984 16.4238C21.1035 16.2188 21.1855 16 21.1855 15.7539C21.1855 15.2344 20.8027 14.8516 20.2969 14.8516C20.0508 14.8516 19.8047 14.9336 19.6406 15.0977L15.5117 19.1992L11.834 23.1504L11.916 20.2246V1.23438C11.916 0.714844 11.5332 0.332031 11 0.332031Z" fill="white"/>
</svg>
