<svg width="44" height="38" viewBox="0 0 44 38" fill="none" xmlns="http://www.w3.org/2000/svg">
<path d="M7.23438 29.2188H17.7031V32.6094H17.5156C16.9688 32.6094 16.5312 33.0312 16.5312 33.5781C16.5312 34.125 16.9688 34.5469 17.5156 34.5469H27.4688C28 34.5469 28.4375 34.125 28.4375 33.5781C28.4375 33.0312 28 32.6094 27.4688 32.6094H27.2812V29.2188H37.7344C39.5781 29.2188 40.7188 28.0781 40.7188 26.2344V6.875C40.7188 5.03125 39.5781 3.90625 37.7344 3.90625H7.23438C5.39062 3.90625 4.26562 5.03125 4.26562 6.875V26.2344C4.26562 28.0781 5.39062 29.2188 7.23438 29.2188ZM7.28125 27.2812C6.625 27.2812 6.20312 26.8594 6.20312 26.2031V6.92188C6.20312 6.25 6.625 5.84375 7.28125 5.84375H37.6875C38.3594 5.84375 38.7812 6.25 38.7812 6.92188V26.2031C38.7812 26.8594 38.3594 27.2812 37.6875 27.2812H7.28125Z" fill="url(#paint0_linear)"/>
<defs>
<linearGradient id="paint0_linear" x1="12.8906" y1="-5.16309" x2="46.4984" y2="15.2613" gradientUnits="userSpaceOnUse">
<stop stop-color="#1D7CEA"/>
<stop offset="1" stop-color="#4186D7"/>
</linearGradient>
</defs>
</svg>
