<svg width="44" height="38" viewBox="0 0 44 38" fill="none" xmlns="http://www.w3.org/2000/svg">
<path d="M10.0469 34.7969H20.9531C23.4688 34.7969 25.0156 33.2969 25.0156 30.8594V6.57812C25.0156 4.14062 23.4688 2.625 20.9531 2.625H10.0469C7.53125 2.625 5.98438 4.14062 5.98438 6.57812V30.8594C5.98438 33.2969 7.53125 34.7969 10.0469 34.7969ZM10.2656 32.875C8.70312 32.875 7.92188 32.1094 7.92188 30.5781V6.84375C7.92188 5.32812 8.70312 4.5625 10.2656 4.5625H11.2969C11.5312 4.5625 11.6562 4.6875 11.6562 4.90625V5.1875C11.6562 5.76562 12.0312 6.17188 12.6094 6.17188H18.4062C18.9844 6.17188 19.3594 5.76562 19.3594 5.1875V4.90625C19.3594 4.6875 19.4844 4.5625 19.7031 4.5625H20.7344C22.2969 4.5625 23.0938 5.32812 23.0938 6.84375V30.5781C23.0938 32.1094 22.2969 32.875 20.7344 32.875H10.2656ZM12.2656 31.7656H18.75C19.0938 31.7656 19.3594 31.5156 19.3594 31.1562C19.3594 30.7812 19.0938 30.5312 18.75 30.5312H12.2656C11.9062 30.5312 11.6562 30.7812 11.6562 31.1562C11.6562 31.5156 11.9062 31.7656 12.2656 31.7656Z" fill="url(#paint0_linear)"/>
<defs>
<linearGradient id="paint0_linear" x1="8.88022" y1="-5.16309" x2="35.855" y2="6.13011" gradientUnits="userSpaceOnUse">
<stop stop-color="#1D7CEA"/>
<stop offset="1" stop-color="#4186D7"/>
</linearGradient>
</defs>
</svg>
