<svg width="44" height="38" viewBox="0 0 44 38" fill="none" xmlns="http://www.w3.org/2000/svg">
<path d="M5.75 31.8594C6.28125 31.8594 6.70312 31.6875 7.26562 31.3594L25.9219 20.5C26.9688 19.8906 27.375 19.4531 27.375 18.7344C27.375 18.0156 26.9688 17.5938 25.9219 16.9844L7.26562 6.10938C6.70312 5.79688 6.28125 5.60938 5.75 5.60938C4.78125 5.60938 4.15625 6.34375 4.15625 7.51562V29.9531C4.15625 31.125 4.78125 31.8594 5.75 31.8594ZM6.3125 29.6094C6.1875 29.6094 6.09375 29.5156 6.09375 29.3281V8.14062C6.09375 7.95312 6.1875 7.85938 6.3125 7.85938C6.40625 7.85938 6.5 7.89062 6.59375 7.95312L24.6562 18.4375C24.7812 18.5156 24.9062 18.5938 24.9062 18.7344C24.9062 18.875 24.7812 18.9531 24.6562 19.0312L6.59375 29.5156C6.5 29.5781 6.40625 29.6094 6.3125 29.6094Z" fill="url(#paint0_linear)"/>
<defs>
<linearGradient id="paint0_linear" x1="8.02084" y1="-5.16309" x2="33.0733" y2="4.31031" gradientUnits="userSpaceOnUse">
<stop stop-color="#1D7CEA"/>
<stop offset="1" stop-color="#4186D7"/>
</linearGradient>
</defs>
</svg>
