<svg width="18" height="19" viewBox="0 0 18 19" fill="none" xmlns="http://www.w3.org/2000/svg">
<path d="M0.0214844 8.05469C0.0214844 12.001 3.22949 15.209 7.17578 15.209C8.64355 15.209 9.98828 14.7607 11.1133 13.9961L15.1562 18.0391C15.4023 18.2939 15.7451 18.4082 16.0879 18.4082C16.835 18.4082 17.3711 17.8457 17.3711 17.1162C17.3711 16.7646 17.248 16.4395 17.0107 16.1934L12.9941 12.168C13.8291 11.0166 14.3301 9.59277 14.3301 8.05469C14.3301 4.1084 11.1221 0.900391 7.17578 0.900391C3.22949 0.900391 0.0214844 4.1084 0.0214844 8.05469ZM1.88477 8.05469C1.88477 5.13672 4.24902 2.76367 7.17578 2.76367C10.0938 2.76367 12.4668 5.13672 12.4668 8.05469C12.4668 10.9727 10.0938 13.3457 7.17578 13.3457C4.24902 13.3457 1.88477 10.9727 1.88477 8.05469Z" fill="#a5a5a5" />
</svg>
