<svg width="44" height="38" viewBox="0 0 44 38" fill="none" xmlns="http://www.w3.org/2000/svg">
<path d="M6.6875 12.5469H10.3906C11.9531 12.5469 12.8594 11.6875 12.8594 10.0312V6.40625C12.8594 4.76562 11.9531 3.89062 10.3906 3.89062H6.6875C5.10938 3.89062 4.20312 4.76562 4.20312 6.40625V10.0312C4.20312 11.6875 5.10938 12.5469 6.6875 12.5469ZM17.6406 12.5469H21.3438C22.9219 12.5469 23.8125 11.6875 23.8125 10.0312V6.40625C23.8125 4.76562 22.9219 3.89062 21.3438 3.89062H17.6406C16.0625 3.89062 15.1719 4.76562 15.1719 6.40625V10.0312C15.1719 11.6875 16.0625 12.5469 17.6406 12.5469ZM28.6094 12.5469H32.3125C33.8906 12.5469 34.7969 11.6875 34.7969 10.0312V6.40625C34.7969 4.76562 33.8906 3.89062 32.3125 3.89062H28.6094C27.0312 3.89062 26.125 4.76562 26.125 6.40625V10.0312C26.125 11.6875 27.0312 12.5469 28.6094 12.5469ZM6.89062 10.875C6.20312 10.875 5.89062 10.5469 5.89062 9.84375V6.59375C5.89062 5.90625 6.20312 5.59375 6.89062 5.59375H10.1719C10.8438 5.59375 11.1719 5.90625 11.1719 6.59375V9.84375C11.1719 10.5469 10.8438 10.875 10.1719 10.875H6.89062ZM17.8438 10.875C17.1562 10.875 16.8594 10.5469 16.8594 9.84375V6.59375C16.8594 5.90625 17.1562 5.59375 17.8438 5.59375H21.1406C21.8125 5.59375 22.125 5.90625 22.125 6.59375V9.84375C22.125 10.5469 21.8125 10.875 21.1406 10.875H17.8438ZM28.8125 10.875C28.1406 10.875 27.8125 10.5469 27.8125 9.84375V6.59375C27.8125 5.90625 28.1406 5.59375 28.8125 5.59375H32.0938C32.7812 5.59375 33.0938 5.90625 33.0938 6.59375V9.84375C33.0938 10.5469 32.7812 10.875 32.0938 10.875H28.8125ZM6.6875 23.0469H10.3906C11.9531 23.0469 12.8594 22.1875 12.8594 20.5469V16.9062C12.8594 15.25 11.9531 14.4062 10.3906 14.4062H6.6875C5.10938 14.4062 4.20312 15.25 4.20312 16.9062V20.5469C4.20312 22.1875 5.10938 23.0469 6.6875 23.0469ZM17.6406 23.0469H21.3438C22.9219 23.0469 23.8125 22.1875 23.8125 20.5469V16.9062C23.8125 15.25 22.9219 14.4062 21.3438 14.4062H17.6406C16.0625 14.4062 15.1719 15.25 15.1719 16.9062V20.5469C15.1719 22.1875 16.0625 23.0469 17.6406 23.0469ZM28.6094 23.0469H32.3125C33.8906 23.0469 34.7969 22.1875 34.7969 20.5469V16.9062C34.7969 15.25 33.8906 14.4062 32.3125 14.4062H28.6094C27.0312 14.4062 26.125 15.25 26.125 16.9062V20.5469C26.125 22.1875 27.0312 23.0469 28.6094 23.0469ZM6.89062 21.3594C6.20312 21.3594 5.89062 21.0469 5.89062 20.3438V17.0938C5.89062 16.4062 6.20312 16.0781 6.89062 16.0781H10.1719C10.8438 16.0781 11.1719 16.4062 11.1719 17.0938V20.3438C11.1719 21.0469 10.8438 21.3594 10.1719 21.3594H6.89062ZM17.8438 21.3594C17.1562 21.3594 16.8594 21.0469 16.8594 20.3438V17.0938C16.8594 16.4062 17.1562 16.0781 17.8438 16.0781H21.1406C21.8125 16.0781 22.125 16.4062 22.125 17.0938V20.3438C22.125 21.0469 21.8125 21.3594 21.1406 21.3594H17.8438ZM28.8125 21.3594C28.1406 21.3594 27.8125 21.0469 27.8125 20.3438V17.0938C27.8125 16.4062 28.1406 16.0781 28.8125 16.0781H32.0938C32.7812 16.0781 33.0938 16.4062 33.0938 17.0938V20.3438C33.0938 21.0469 32.7812 21.3594 32.0938 21.3594H28.8125ZM6.6875 33.5469H10.3906C11.9531 33.5469 12.8594 32.6875 12.8594 31.0312V27.4219C12.8594 25.7656 11.9531 24.8906 10.3906 24.8906H6.6875C5.10938 24.8906 4.20312 25.7656 4.20312 27.4219V31.0312C4.20312 32.6875 5.10938 33.5469 6.6875 33.5469ZM17.6406 33.5469H21.3438C22.9219 33.5469 23.8125 32.6875 23.8125 31.0312V27.4219C23.8125 25.7656 22.9219 24.8906 21.3438 24.8906H17.6406C16.0625 24.8906 15.1719 25.7656 15.1719 27.4219V31.0312C15.1719 32.6875 16.0625 33.5469 17.6406 33.5469ZM28.6094 33.5469H32.3125C33.8906 33.5469 34.7969 32.6875 34.7969 31.0312V27.4219C34.7969 25.7656 33.8906 24.8906 32.3125 24.8906H28.6094C27.0312 24.8906 26.125 25.7656 26.125 27.4219V31.0312C26.125 32.6875 27.0312 33.5469 28.6094 33.5469ZM6.89062 31.8594C6.20312 31.8594 5.89062 31.5469 5.89062 30.8438V27.5938C5.89062 26.8906 6.20312 26.5781 6.89062 26.5781H10.1719C10.8438 26.5781 11.1719 26.8906 11.1719 27.5938V30.8438C11.1719 31.5469 10.8438 31.8594 10.1719 31.8594H6.89062ZM17.8438 31.8594C17.1562 31.8594 16.8594 31.5469 16.8594 30.8438V27.5938C16.8594 26.8906 17.1562 26.5781 17.8438 26.5781H21.1406C21.8125 26.5781 22.125 26.8906 22.125 27.5938V30.8438C22.125 31.5469 21.8125 31.8594 21.1406 31.8594H17.8438ZM28.8125 31.8594C28.1406 31.8594 27.8125 31.5469 27.8125 30.8438V27.5938C27.8125 26.8906 28.1406 26.5781 28.8125 26.5781H32.0938C32.7812 26.5781 33.0938 26.8906 33.0938 27.5938V30.8438C33.0938 31.5469 32.7812 31.8594 32.0938 31.8594H28.8125Z" fill="url(#paint0_linear)"/>
<defs>
<linearGradient id="paint0_linear" x1="11.1719" y1="-5.16309" x2="42.3946" y2="11.2818" gradientUnits="userSpaceOnUse">
<stop stop-color="#1D7CEA"/>
<stop offset="1" stop-color="#4186D7"/>
</linearGradient>
</defs>
</svg>
