<svg width="47" height="38" viewBox="0 0 47 38" fill="none" xmlns="http://www.w3.org/2000/svg">
<path d="M7.15625 18.0156H22.0469C24.0781 18.0156 25.1094 17.0469 25.1094 14.9844V7.92188C25.1094 5.85938 24.0781 4.89062 22.0469 4.89062H7.15625C5.125 4.89062 4.09375 5.85938 4.09375 7.92188V14.9844C4.09375 17.0469 5.125 18.0156 7.15625 18.0156ZM7.29688 16.1875C6.375 16.1875 5.92188 15.75 5.92188 14.7969V8.10938C5.92188 7.15625 6.375 6.71875 7.29688 6.71875H21.9062C22.8281 6.71875 23.2812 7.15625 23.2812 8.10938V14.7969C23.2812 15.75 22.8281 16.1875 21.9062 16.1875H7.29688ZM33.125 30.7969H43.8281C45.8594 30.7969 46.9062 29.8281 46.9062 27.75V9.92188C46.9062 7.85938 45.8594 6.89062 43.8281 6.89062H33.125C31.0938 6.89062 30.0625 7.85938 30.0625 9.92188V27.75C30.0625 29.8281 31.0938 30.7969 33.125 30.7969ZM33.2656 28.9688C32.3438 28.9688 31.8906 28.5312 31.8906 27.5781V10.1094C31.8906 9.15625 32.3438 8.71875 33.2656 8.71875H43.6875C44.625 8.71875 45.0781 9.15625 45.0781 10.1094V27.5781C45.0781 28.5312 44.625 28.9688 43.6875 28.9688H33.2656ZM11.1406 32.5312H24C26.0312 32.5312 27.0625 31.5625 27.0625 29.4844V24.4844C27.0625 22.4062 26.0312 21.4375 24 21.4375H11.1406C9.125 21.4375 8.07812 22.4062 8.07812 24.4844V29.4844C8.07812 31.5625 9.125 32.5312 11.1406 32.5312ZM11.2812 30.7031C10.3594 30.7031 9.90625 30.2656 9.90625 29.3125V24.6562C9.90625 23.7031 10.3594 23.2656 11.2812 23.2656H23.8594C24.7812 23.2656 25.2344 23.7031 25.2344 24.6562V29.3125C25.2344 30.2656 24.7812 30.7031 23.8594 30.7031H11.2812Z" fill="url(#paint0_linear)"/>
<defs>
<linearGradient id="paint0_linear" x1="14.6094" y1="-5.16309" x2="49.9842" y2="19.2016" gradientUnits="userSpaceOnUse">
<stop stop-color="#1D7CEA"/>
<stop offset="1" stop-color="#4186D7"/>
</linearGradient>
</defs>
</svg>
