<svg width="42" height="42" viewBox="0 0 42 42" fill="none" xmlns="http://www.w3.org/2000/svg">
<circle cx="21" cy="21" r="21" fill="#0066B1"/>
<path d="M30.2119 11.6331C27.7678 9.2915 24.5174 8.00132 21.0543 8C13.9188 8 8.1114 13.5569 8.10855 20.3873C8.10763 22.5707 8.70374 24.7019 9.83658 26.5805L8 33L14.8627 31.2774C16.7536 32.2642 18.8824 32.7843 21.0491 32.7852H21.0544C28.1892 32.7852 33.9971 27.2276 34 20.3972C34.0014 17.0871 32.6561 13.9746 30.2119 11.6331ZM21.0544 30.693H21.05C19.1193 30.6923 17.2256 30.1959 15.5736 29.2578L15.1806 29.0346L11.1082 30.0569L12.1952 26.2574L11.9393 25.8678C10.8622 24.2284 10.2934 22.3336 10.2942 20.3881C10.2965 14.711 15.1235 10.0923 21.0586 10.0923C23.9325 10.0933 26.6341 11.1658 28.6656 13.112C30.6971 15.0581 31.8153 17.6452 31.8142 20.3964C31.8119 26.074 26.985 30.693 21.0544 30.693ZM26.9565 22.9814C26.6329 22.8265 25.0427 22.0777 24.7461 21.9744C24.4497 21.871 24.234 21.8194 24.0183 22.1293C23.8028 22.4392 23.1828 23.1364 22.9941 23.343C22.8054 23.5496 22.6167 23.5754 22.2933 23.4205C21.9698 23.2655 20.9276 22.9387 19.692 21.8841C18.7305 21.0634 18.0813 20.0497 17.8926 19.7398C17.7039 19.4299 17.8725 19.2624 18.0344 19.1081C18.1799 18.9694 18.3579 18.7465 18.5196 18.5658C18.6814 18.3851 18.7353 18.2559 18.8431 18.0493C18.9509 17.8427 18.897 17.662 18.8161 17.507C18.7353 17.3521 18.0883 15.8285 17.8188 15.2088C17.5563 14.6052 17.2895 14.6869 17.091 14.6774C16.9025 14.6684 16.6867 14.6665 16.471 14.6665C16.2554 14.6665 15.905 14.744 15.6085 15.0538C15.312 15.3637 14.4764 16.1126 14.4764 17.6361C14.4764 19.1597 15.6354 20.6316 15.7972 20.8382C15.9589 21.0447 18.0781 24.1713 21.3229 25.5121C22.0947 25.831 22.6972 26.0214 23.1669 26.1641C23.9418 26.3996 24.647 26.3664 25.2044 26.2868C25.8258 26.1979 27.1181 25.538 27.3877 24.8149C27.6573 24.0918 27.6573 23.4721 27.5764 23.343C27.4955 23.2139 27.2799 23.1364 26.9565 22.9814Z" fill="white"/>
</svg>
